<svg width="38" height="38" viewBox="0 0 38 38" fill="none" xmlns="http://www.w3.org/2000/svg">
<path d="M12.1796 18.5684C14.3089 16.4391 16.4385 15.3745 18.5684 15.3745C20.6983 15.3745 22.8278 16.4391 24.9571 18.5684C27.4419 16.4391 29.305 15.3745 30.5465 15.3745C31.7892 15.3745 33.6526 16.4391 36.1368 18.5684C36.1368 8.86537 28.2714 1 18.5684 1C8.86537 1 1 8.86537 1 18.5684C3.48476 16.4391 5.34818 15.3745 6.59026 15.3745C7.83235 15.3745 9.69547 16.4391 12.1796 18.5684Z" stroke="white" stroke-width="2" stroke-linejoin="round"/>
<path d="M1 18.5684L18.5684 36.1368M18.5684 36.1368L12.1796 18.5684M18.5684 36.1368L24.9571 18.5684M18.5684 36.1368L36.1368 18.5684" stroke="white" stroke-width="2" stroke-linecap="round" stroke-linejoin="round"/>
</svg>
