<svg width="32" height="36" viewBox="0 0 32 36" fill="none" xmlns="http://www.w3.org/2000/svg">
<path d="M9.45267 33.4913C7.98415 32.1739 6.93667 30.435 6.44627 28.5005C5.95588 26.5661 6.04524 24.5254 6.70275 22.6436L10.1082 12.9412C10.1865 12.717 10.3256 12.5203 10.5093 12.3742C10.693 12.2281 10.9136 12.1386 11.1452 12.1163C11.3768 12.0939 11.6098 12.1397 11.817 12.2481C12.0241 12.3565 12.1967 12.5232 12.3145 12.7285L12.8101 13.6284C13.1938 14.2665 13.2738 15.0518 13.034 15.7554L11.4671 20.2384L12.1546 20.8602L21.6834 9.81612C22.243 9.16165 23.2022 9.09621 23.8577 9.66886C24.4813 10.2415 24.5452 11.2396 24.0016 11.8777L16.887 20.1075L17.8143 20.942L26.5277 10.8305C27.0873 10.1761 28.0626 10.1106 28.6861 10.6833C29.3256 11.2559 29.3896 12.2703 28.798 12.9084L20.1006 23.0199L21.0279 23.8543L28.5262 15.15C29.0858 14.4955 30.0611 14.4301 30.6846 15.0027C31.3081 15.5754 31.388 16.5734 30.8285 17.1788L23.3301 25.9159L24.2415 26.7503L29.3096 20.8765C29.8692 20.2221 30.8445 20.1566 31.484 20.7293C32.1235 21.3019 32.1715 22.3 31.6119 22.9054L23.2982 32.5914C22.4475 33.5819 21.4143 34.3911 20.2577 34.9725C19.1011 35.5539 17.8438 35.8962 16.5578 35.9798C15.2718 36.0634 13.9823 35.8866 12.7631 35.4596C11.5439 35.0326 10.419 34.3637 9.45267 33.4913ZM15.3522 13.4484L19.8928 8.17996C20.2765 7.7382 20.7561 7.36188 21.2837 7.14918L21.8912 5.87298C21.9816 5.68862 22.0351 5.48764 22.0486 5.28184C22.0621 5.07603 22.0353 4.86955 21.9698 4.67448C21.9042 4.47942 21.8013 4.29971 21.667 4.14589C21.5328 3.99207 21.3698 3.86723 21.1878 3.7787C20.8226 3.59952 20.4033 3.57459 20.0203 3.7093C19.6374 3.84402 19.3216 4.12755 19.1413 4.49861L15.1284 12.9084C15.2083 13.0884 15.3042 13.2684 15.3522 13.4484ZM14.4089 11.4523V11.5341L18.8535 2.25708C19.0271 1.88136 19.0489 1.45076 18.9142 1.0587C18.7795 0.666641 18.4992 0.344732 18.1341 0.162802C17.9538 0.0709862 17.7575 0.0167732 17.5565 0.0033172C17.3556 -0.0101388 17.1541 0.0174307 16.9636 0.0844219C16.7732 0.151413 16.5977 0.256489 16.4473 0.393536C16.2969 0.530583 16.1747 0.696865 16.0876 0.88271L11.8668 9.73431C12.9061 9.91428 13.8174 10.5197 14.4089 11.4523ZM4.44846 21.8091L7.85388 12.1067C8.28555 10.8796 9.29279 10.0452 10.4919 9.76703L13.9133 2.58431C14.0901 2.21092 14.1154 1.7811 13.9836 1.38871C13.8518 0.996326 13.5736 0.673248 13.2098 0.490033C13.0295 0.398217 12.8332 0.344004 12.6323 0.330548C12.4313 0.317092 12.2298 0.344662 12.0394 0.411653C11.8489 0.478644 11.6734 0.58372 11.523 0.720767C11.3726 0.857814 11.2504 1.0241 11.1634 1.20994L4.81618 14.4628L4.01679 14.0538L4.35253 9.29255C4.41648 8.55628 4.1287 7.82001 3.61709 7.29644L2.88165 6.54381C2.13022 5.84026 0.899151 6.31474 0.819212 7.36188L0.0198174 17.6533C-0.188025 20.9911 1.25088 24.1816 3.77697 26.1777C3.74499 24.7378 3.95284 23.2489 4.44846 21.8091Z" fill="#CFCFCF"/>
</svg>
