<svg width="26" height="26" viewBox="0 0 26 26" fill="none" xmlns="http://www.w3.org/2000/svg">
<path d="M14.9152 11.0836C13.9325 10.1009 12.6097 9.53358 11.2204 9.4989C9.8311 9.46422 8.48161 9.96485 7.45108 10.8972L7.255 11.0836L4.19133 14.1483C3.19354 15.1479 2.62562 16.4976 2.60861 17.9099C2.5916 19.3221 3.12686 20.6851 4.10028 21.7084C5.07371 22.7317 6.40832 23.3344 7.81964 23.3879C9.23096 23.4414 10.6074 22.9416 11.6555 21.9949L11.8505 21.8086L14.1493 19.5097C14.3436 19.3148 14.4564 19.0532 14.4648 18.7781C14.4732 18.503 14.3766 18.235 14.1946 18.0285C14.0125 17.8221 13.7587 17.6927 13.4847 17.6666C13.2107 17.6405 12.9371 17.7196 12.7193 17.888L12.6175 17.9779L10.3187 20.2767C9.72275 20.8761 8.91677 21.2198 8.0717 21.2348C7.22662 21.2499 6.40893 20.9351 5.79208 20.3573C5.17523 19.7795 4.80774 18.9841 4.76757 18.1398C4.7274 17.2955 5.01771 16.4689 5.57692 15.8351L5.72317 15.6802L8.78683 12.6165C9.08863 12.3146 9.44693 12.0752 9.84127 11.9118C10.2356 11.7485 10.6583 11.6644 11.0851 11.6644C11.512 11.6644 11.9346 11.7485 12.329 11.9118C12.7233 12.0752 13.0816 12.3146 13.3834 12.6165C13.5867 12.8196 13.8623 12.9337 14.1497 12.9336C14.4371 12.9335 14.7127 12.8192 14.9158 12.616C15.1189 12.4127 15.233 12.137 15.2329 11.8497C15.2328 11.5623 15.1185 11.2867 14.9152 11.0836ZM21.8096 4.18925C20.8269 3.20659 19.504 2.63925 18.1147 2.60456C16.7254 2.56988 15.3759 3.07052 14.3454 4.00291L14.1493 4.18925L11.8516 6.48916C11.6573 6.68412 11.5445 6.94572 11.5361 7.22083C11.5277 7.49594 11.6243 7.76394 11.8064 7.97038C11.9884 8.17683 12.2422 8.30625 12.5162 8.33235C12.7902 8.35845 13.0638 8.27928 13.2816 8.11091L13.3834 8.021L15.6812 5.72325C16.2781 5.13019 17.0818 4.79177 17.9232 4.7792C18.7646 4.76663 19.578 5.08089 20.1924 5.65585C20.8068 6.23081 21.1743 7.02167 21.2175 7.86203C21.2606 8.70239 20.9762 9.52674 20.424 10.1617L20.2777 10.3177L17.213 13.3824C16.6035 13.9917 15.777 14.334 14.9152 14.334C14.0535 14.334 13.227 13.9917 12.6175 13.3824C12.5169 13.2818 12.3975 13.2019 12.2661 13.1474C12.1346 13.0929 11.9937 13.0648 11.8514 13.0648C11.7091 13.0647 11.5682 13.0927 11.4367 13.1471C11.3053 13.2015 11.1858 13.2813 11.0851 13.3819C10.9845 13.4825 10.9046 13.6019 10.8501 13.7333C10.7956 13.8648 10.7675 14.0057 10.7675 14.1479C10.7674 14.2902 10.7954 14.4312 10.8498 14.5626C10.9042 14.6941 10.984 14.8136 11.0846 14.9142C12.0673 15.8969 13.3901 16.4642 14.7794 16.4989C16.1687 16.5336 17.5182 16.033 18.5487 15.1006L18.7459 14.9142L21.8096 11.8495C22.825 10.8337 23.3955 9.45622 23.3955 8.01991C23.3955 6.58361 22.825 5.20502 21.8096 4.18925Z" fill="white"/>
</svg>
