<svg width="25" height="36" viewBox="0 0 25 36" fill="none" xmlns="http://www.w3.org/2000/svg">
<path d="M25 13.1247C25.0015 10.9084 24.4677 8.7278 23.4484 6.78657C22.4291 4.84534 20.9576 3.2068 19.1712 2.02396C17.3848 0.841116 15.3418 0.152555 13.2331 0.0225759C11.1243 -0.107403 9.01859 0.325439 7.11248 1.28068C5.20638 2.23593 3.56208 3.68241 2.33315 5.48506C1.10422 7.28771 0.33073 9.38773 0.0849225 11.589C-0.160885 13.7903 0.129004 16.021 0.927517 18.0729C1.72603 20.1248 3.00712 21.9309 4.65116 23.3225V35.085C4.65133 35.2409 4.68947 35.3942 4.76197 35.5303C4.83447 35.6665 4.93892 35.7809 5.06541 35.8628C5.20271 35.9527 5.36138 36.0003 5.52326 36C5.65844 36.0001 5.7918 35.9672 5.91279 35.9039L12.5 32.4482L19.0887 35.9039C19.2216 35.9732 19.3692 36.0058 19.5174 35.9985C19.6657 35.9913 19.8098 35.9444 19.9359 35.8624C20.0621 35.7804 20.1663 35.6659 20.2385 35.5299C20.3108 35.3939 20.3488 35.2407 20.3488 35.085V23.3225C21.8009 22.0952 22.9724 20.5421 23.7773 18.7774C24.5822 17.0126 25 15.0811 25 13.1247ZM1.74419 13.1247C1.74419 10.8927 2.375 8.71088 3.55687 6.85505C4.73873 4.99922 6.41856 3.55277 8.38393 2.69863C10.3493 1.84448 12.5119 1.621 14.5984 2.05644C16.6848 2.49188 18.6013 3.56668 20.1055 5.14494C21.6097 6.72319 22.6341 8.73401 23.0491 10.9231C23.4642 13.1122 23.2512 15.3813 22.4371 17.4434C21.623 19.5055 20.2444 21.268 18.4756 22.508C16.7068 23.748 14.6273 24.4099 12.5 24.4099C9.64844 24.4062 6.91467 23.2161 4.89831 21.1005C2.88196 18.9849 1.74765 16.1166 1.74419 13.1247ZM18.6046 33.6042L12.8881 30.606C12.7671 30.5426 12.6338 30.5097 12.4985 30.5097C12.3633 30.5097 12.23 30.5426 12.109 30.606L6.39535 33.6042V24.5624C8.25952 25.6612 10.3618 26.2384 12.5 26.2384C14.6382 26.2384 16.7405 25.6612 18.6046 24.5624V33.6042ZM12.5 21.3598C14.0524 21.3598 15.5698 20.8768 16.8606 19.972C18.1513 19.0671 19.1573 17.7809 19.7514 16.2762C20.3454 14.7714 20.5009 13.1156 20.198 11.5181C19.8952 9.92069 19.1476 8.45334 18.05 7.30164C16.9523 6.14994 15.5538 5.36562 14.0312 5.04787C12.5087 4.73012 10.9306 4.8932 9.49638 5.51649C8.06219 6.13979 6.83637 7.1953 5.97393 8.54956C5.11149 9.90381 4.65116 11.496 4.65116 13.1247C4.65347 15.3081 5.48114 17.4013 6.95258 18.9451C8.42402 20.489 10.4191 21.3574 12.5 21.3598ZM12.5 6.71966C13.7074 6.71966 14.8877 7.09531 15.8916 7.79911C16.8955 8.5029 17.6779 9.50324 18.14 10.6736C18.602 11.844 18.7229 13.1318 18.4874 14.3743C18.2518 15.6168 17.6704 16.758 16.8166 17.6538C15.9629 18.5496 14.8751 19.1596 13.691 19.4067C12.5068 19.6539 11.2793 19.527 10.1639 19.0422C9.04837 18.5575 8.09496 17.7365 7.42417 16.6832C6.75338 15.6299 6.39535 14.3915 6.39535 13.1247C6.39535 11.426 7.03852 9.79684 8.18336 8.59566C9.3282 7.39447 10.8809 6.71966 12.5 6.71966Z" fill="white"/>
</svg>
