<svg width="30" height="36" viewBox="0 0 30 36" fill="none" xmlns="http://www.w3.org/2000/svg">
<path d="M0 4.23579C0 3.11239 0.451721 2.035 1.25579 1.24063C2.05986 0.44627 3.15041 0 4.28753 0H21.4377C22.5748 0 23.6653 0.44627 24.4694 1.24063C25.2735 2.035 25.7252 3.11239 25.7252 4.23579V25.167L23.5814 27.306V4.23579C23.5814 3.67409 23.3556 3.1354 22.9535 2.73821C22.5515 2.34103 22.0062 2.1179 21.4377 2.1179H4.28753C3.71897 2.1179 3.17369 2.34103 2.77166 2.73821C2.36963 3.1354 2.14377 3.67409 2.14377 4.23579V29.6505C2.14377 30.2122 2.36963 30.7509 2.77166 31.1481C3.17369 31.5453 3.71897 31.7684 4.28753 31.7684H13.0448C13.197 32.192 13.4414 32.5923 13.7823 32.9333L14.7277 33.8863H4.28753C3.15041 33.8863 2.05986 33.4401 1.25579 32.6457C0.451721 31.8513 0 30.774 0 29.6505V4.23579ZM8.57506 7.41264C8.57506 7.97434 8.3492 8.51303 7.94717 8.91022C7.54513 9.3074 6.99986 9.53053 6.4313 9.53053C5.86273 9.53053 5.31746 9.3074 4.91543 8.91022C4.51339 8.51303 4.28753 7.97434 4.28753 7.41264C4.28753 6.85094 4.51339 6.31224 4.91543 5.91506C5.31746 5.51788 5.86273 5.29474 6.4313 5.29474C6.99986 5.29474 7.54513 5.51788 7.94717 5.91506C8.3492 6.31224 8.57506 6.85094 8.57506 7.41264ZM11.7907 6.35369C11.5064 6.35369 11.2338 6.46526 11.0328 6.66385C10.8318 6.86244 10.7188 7.13179 10.7188 7.41264C10.7188 7.69349 10.8318 7.96283 11.0328 8.16143C11.2338 8.36002 11.5064 8.47159 11.7907 8.47159H20.3658C20.6501 8.47159 20.9227 8.36002 21.1237 8.16143C21.3247 7.96283 21.4377 7.69349 21.4377 7.41264C21.4377 7.13179 21.3247 6.86244 21.1237 6.66385C20.9227 6.46526 20.6501 6.35369 20.3658 6.35369H11.7907ZM11.7907 14.8253C11.5064 14.8253 11.2338 14.9368 11.0328 15.1354C10.8318 15.334 10.7188 15.6034 10.7188 15.8842C10.7188 16.1651 10.8318 16.4344 11.0328 16.633C11.2338 16.8316 11.5064 16.9432 11.7907 16.9432H20.3658C20.6501 16.9432 20.9227 16.8316 21.1237 16.633C21.3247 16.4344 21.4377 16.1651 21.4377 15.8842C21.4377 15.6034 21.3247 15.334 21.1237 15.1354C20.9227 14.9368 20.6501 14.8253 20.3658 14.8253H11.7907ZM10.7188 24.3558C10.7188 24.075 10.8318 23.8056 11.0328 23.607C11.2338 23.4084 11.5064 23.2969 11.7907 23.2969H20.3658C20.6501 23.2969 20.9227 23.4084 21.1237 23.607C21.3247 23.8056 21.4377 24.075 21.4377 24.3558C21.4377 24.6367 21.3247 24.906 21.1237 25.1046C20.9227 25.3032 20.6501 25.4148 20.3658 25.4148H11.7907C11.5064 25.4148 11.2338 25.3032 11.0328 25.1046C10.8318 24.906 10.7188 24.6367 10.7188 24.3558ZM6.4313 18.0021C6.99986 18.0021 7.54513 17.779 7.94717 17.3818C8.3492 16.9846 8.57506 16.4459 8.57506 15.8842C8.57506 15.3225 8.3492 14.7838 7.94717 14.3866C7.54513 13.9895 6.99986 13.7663 6.4313 13.7663C5.86273 13.7663 5.31746 13.9895 4.91543 14.3866C4.51339 14.7838 4.28753 15.3225 4.28753 15.8842C4.28753 16.4459 4.51339 16.9846 4.91543 17.3818C5.31746 17.779 5.86273 18.0021 6.4313 18.0021ZM6.4313 26.4737C6.99986 26.4737 7.54513 26.2506 7.94717 25.8534C8.3492 25.4562 8.57506 24.9175 8.57506 24.3558C8.57506 23.7941 8.3492 23.2554 7.94717 22.8582C7.54513 22.461 6.99986 22.2379 6.4313 22.2379C5.86273 22.2379 5.31746 22.461 4.91543 22.8582C4.51339 23.2554 4.28753 23.7941 4.28753 24.3558C4.28753 24.9175 4.51339 25.4562 4.91543 25.8534C5.31746 26.2506 5.86273 26.4737 6.4313 26.4737ZM29.7019 27.2192C29.8964 27.0187 30.0035 26.7507 29.9999 26.473C29.9964 26.1952 29.8825 25.93 29.6828 25.7344C29.4832 25.5388 29.2138 25.4286 28.9326 25.4274C28.6515 25.4263 28.3811 25.5343 28.1798 25.7282L20.3701 33.5221L16.8436 29.9682C16.7456 29.8666 16.6281 29.7853 16.498 29.7289C16.368 29.6726 16.2278 29.6423 16.0858 29.6399C15.9438 29.6375 15.8027 29.663 15.6707 29.715C15.5388 29.7669 15.4186 29.8443 15.3171 29.9425C15.2157 30.0408 15.135 30.158 15.0799 30.2873C15.0247 30.4166 14.996 30.5554 14.9956 30.6958C14.9953 30.8361 15.0231 30.9751 15.0776 31.1047C15.132 31.2343 15.212 31.352 15.3129 31.4508L19.4482 35.6188C19.5676 35.7391 19.7101 35.8348 19.8673 35.9002C20.0244 35.9657 20.1932 35.9996 20.3638 36C20.5344 36.0004 20.7033 35.9673 20.8608 35.9025C21.0183 35.8378 21.1612 35.7428 21.2812 35.623L29.7019 27.2192Z" fill="white"/>
</svg>
