<svg width="26" height="26" viewBox="0 0 26 26" fill="none" xmlns="http://www.w3.org/2000/svg">
<path d="M23.426 7.24534L13.9815 22.2853C13.8076 22.5606 13.535 22.759 13.2195 22.8396C12.9039 22.9201 12.5696 22.8769 12.285 22.7186C12.0962 22.6128 11.9368 22.4617 11.8213 22.2788L2.56205 7.23884C2.30263 6.81734 2.16571 6.33193 2.16663 5.837C2.17832 5.10632 2.4794 4.41011 3.0038 3.90115C3.5282 3.39218 4.23309 3.11203 4.9638 3.12217H21.0491C22.5842 3.12217 23.8333 4.33334 23.8333 5.8305C23.8333 6.32884 23.6925 6.8185 23.4249 7.24534M4.83488 6.74267L11.7249 17.3648V5.67125H5.5553C4.84246 5.67125 4.52288 6.14358 4.83596 6.74267M14.274 17.3648L21.164 6.74267C21.4814 6.14358 21.1564 5.67125 20.4435 5.67125H14.274V17.3648Z" fill="white"/>
</svg>
