<svg width="26" height="26" viewBox="0 0 26 26" fill="none" xmlns="http://www.w3.org/2000/svg">
<path d="M21.7504 3.92228C21.8134 4.15728 21.8454 4.39953 21.8455 4.64285L21.8451 7.42903L21.9259 7.43089C22.646 7.45791 23.3277 7.76298 23.8277 8.282C24.3276 8.80102 24.607 9.49361 24.6071 10.2143V21.3571C24.6071 22.096 24.3136 22.8045 23.7912 23.3269C23.2688 23.8494 22.5602 24.1428 21.8214 24.1428H4.17854C3.43972 24.1428 2.73116 23.8494 2.20874 23.3269C1.68632 22.8045 1.39282 22.096 1.39282 21.3571V10.2143L1.39422 10.1191L1.39886 10.0355C1.35907 9.39392 1.54241 8.7583 1.91779 8.23644C2.29317 7.71459 2.83748 7.33861 3.45843 7.17228L18.3388 1.95231C19.0524 1.76117 19.8128 1.86133 20.4525 2.23076C21.0923 2.6002 21.5592 3.20865 21.7504 3.92228ZM21.8214 9.28571H4.17854C3.94419 9.28564 3.71849 9.37418 3.54671 9.53357C3.37492 9.69296 3.26974 9.91141 3.25229 10.1451L3.24997 10.2147V21.3576C3.25001 21.5918 3.33854 21.8173 3.49782 21.989C3.6571 22.1607 3.87537 22.2658 4.10889 22.2834L4.17854 22.2857H21.8214C22.0557 22.2858 22.2813 22.1973 22.4531 22.038C22.6249 21.8787 22.7301 21.6604 22.7476 21.4268L22.75 21.3571V10.2143C22.7499 9.98009 22.6614 9.75457 22.5021 9.58289C22.3428 9.41121 22.1246 9.30606 21.891 9.28849L21.8214 9.28571ZM17.1785 13.9286C17.6711 13.9286 18.1435 14.1242 18.4917 14.4725C18.84 14.8208 19.0357 15.2932 19.0357 15.7857C19.0357 16.2783 18.84 16.7506 18.4917 17.0989C18.1435 17.4472 17.6711 17.6428 17.1785 17.6428C16.686 17.6428 16.2136 17.4472 15.8653 17.0989C15.5171 16.7506 15.3214 16.2783 15.3214 15.7857C15.3214 15.2932 15.5171 14.8208 15.8653 14.4725C16.2136 14.1242 16.686 13.9286 17.1785 13.9286ZM18.8871 3.73053L18.8648 3.73564L8.33714 7.42856H19.9879V4.64285C19.988 4.58885 19.9833 4.53494 19.974 4.48174L19.9564 4.40281C19.8958 4.17646 19.7519 3.98138 19.5535 3.8567C19.3551 3.73201 19.1173 3.68695 18.8871 3.73053Z" fill="white"/>
</svg>
